<?xml version="1.0" encoding="UTF-8" standalone="no"?>
<svg xmlns="http://www.w3.org/2000/svg" version="1.1" width="361" height="600" viewbox="0 0 361 600">
<title>undefined</title><path d="M180.5,0 L0,0 L0,300 L0,600 L180.5,600 L361,600 L361,300 L361,0 L180.5,0 " fill="rgb(255, 255, 255)" stroke="none" fill-rule="evenodd"></path><path d="M180.5,0 L0,0 L0,300 L0,600 L178,600 C319.057,600,356.519,599.481,358.5,597.5 C360.472,595.528,361,569.453,361,474 C361,407.45,360.775,350.975,360.5,348.5 C360.225,346.025,360,333.65,360,321 C360,308.35,360.225,295.975,360.5,293.5 C360.775,291.025,361,223.975,361,144.5 L361,0 L180.5,0 M65.5,6 C71.275,6,77.575,6.45,79.5,7 C81.425,7.55,85.025,9.35,87.5,11 L92,14 L124.5,14 C147.456,14,156.413,14.587,155,16 C153.9,17.1,152.1,19.125,151,20.5 C149.9,21.875,148.325,23.45,147.5,24 C146.675,24.55,144.2,24.55,142,24 C139.8,23.45,136.875,22.55,135.5,22 C134.125,21.45,131.65,21.225,130,21.5 L127,22 L129.5,25.5 C130.875,27.425,132.45,31.475,133,34.5 L134,40 L140,43.5 L146,47 L147,55.5 C147.55,60.175,148.225,66.025,148.5,68.5 C148.775,70.975,148.775,75.475,148.5,78.5 C148.225,81.525,147.55,85.125,147,86.5 C146.35,88.124,141.969,89.876,134.5,91.5 C128.175,92.875,118.725,94.675,113.5,95.5 C108.275,96.325,101.3,97.675,98,98.5 C94.7,99.325,86.825,101.8,80.5,104 L69,108 L68,103.5 C67.45,101.025,67.225,97.2,67.5,95 C67.775,92.8,67.55,86.95,67,82 C66.45,77.05,66.225,68.725,66.5,63.5 C66.854,56.783,68.025,52.682,70.5,49.5 C72.425,47.025,74.9,42.75,76,40 C77.177,37.057,77.383,32.12,76.5,28 C75.675,24.15,74.1,20.325,73,19.5 C71.43,18.322,70.785,18.859,70,22 C69.365,24.541,67.906,26.182,66,26.5 C64.35,26.775,61.2,25.875,59,24.5 C56.8,23.125,52.975,18.85,50.5,15 L46,8 L50.5,7 C52.975,6.45,59.725,6,65.5,6 M43,9 C43.55,9,43.775,9.45,43.5,10 C43.225,10.55,43.225,11.675,43.5,12.5 C43.775,13.325,44.225,16.25,44.5,19 C44.896,22.959,44.167,24.625,41,27 C38.539,28.846,33.538,30.192,28,30.5 L19,31 L16,26 L13,21 L12,23.5 C11.45,24.875,11.675,29.15,12.5,33 C13.325,36.85,14.9,42.025,16,44.5 C17.262,47.339,20.583,50.476,25,53 L32,57 L32,73.5 C32,82.575,31.775,92.025,31.5,94.5 C31.225,96.975,30.55,105.525,30,113.5 C29.45,121.475,28.55,132.05,28,137 C27.45,141.95,26.325,150.05,25.5,155 C24.675,159.95,23.775,167.825,23.5,172.5 C23.225,177.175,22.1,190.45,21,202 C19.9,213.55,18.325,227.05,17.5,232 C16.675,236.95,15.55,242.8,15,245 C14.45,247.2,13.325,255.3,12.5,263 C11.675,270.7,10.55,280.15,10,284 C9.45,287.85,8.55,296.625,8,303.5 C7.45,310.375,6.775,318.025,6.5,320.5 C6.225,322.975,5.775,330.85,5.5,338 C5.225,345.15,4.775,353.025,4.5,355.5 C4.225,357.975,4,362.925,4,366.5 C4,370.075,3.775,375.025,3.5,377.5 C3.225,379.975,3,384.925,3,388.5 C3,392.075,3.45,398.15,4,402 C4.55,405.85,5.9,412.375,7,416.5 C8.1,420.625,9.9,426.7,11,430 C12.1,433.3,14.125,439.6,15.5,444 C16.875,448.4,18.45,454.025,19,456.5 C19.55,458.975,20.675,463.7,21.5,467 C22.325,470.3,24.125,476.6,25.5,481 C26.875,485.4,30.25,496.65,33,506 C35.75,515.35,38,526.15,38,530 C38,533.85,37.55,538.8,37,541 C36.45,543.2,35.55,548.15,35,552 C34.45,555.85,34.45,561.25,35,564 C35.55,566.75,37.8,570.575,40,572.5 C42.643,574.812,46.036,576,50,576 C53.3,576,58.925,577.125,62.5,578.5 C66.075,579.875,70.575,580.55,72.5,580 C74.425,579.45,77.35,579.225,79,579.5 C80.65,579.775,83.575,580.45,85.5,581 C87.425,581.55,89.225,581.775,89.5,581.5 C89.775,581.225,90.225,581.225,90.5,581.5 C90.775,581.775,92.125,581.55,93.5,581 C94.875,580.45,96.9,578.425,98,576.5 C99.1,574.575,100.225,568.275,100.5,562.5 C100.775,556.725,101.45,546.375,102,539.5 C102.55,532.625,103.675,522.725,104.5,517.5 C105.325,512.275,106.9,504.625,108,500.5 C109.1,496.375,111.575,489.175,113.5,484.5 C115.425,479.825,118.125,473.75,119.5,471 C120.875,468.25,122.45,465.775,123,465.5 C123.55,465.225,125.575,466.8,127.5,469 C129.765,471.588,132.235,478.471,134.5,488.5 C136.425,497.025,138.45,509.175,139,515.5 C139.55,521.825,139.775,531.275,139.5,536.5 C139.176,542.663,137.595,548.634,135,553.5 C132.8,557.625,130.775,563.475,130.5,566.5 C130.225,569.525,131.125,573.575,132.5,575.5 C134.177,577.848,137.798,579.658,143.5,581 C148.175,582.1,154.25,584.125,157,585.5 C159.75,586.875,164.25,588,167,588 C170.077,588,171.038,588.385,169.5,589 C168.125,589.55,130.775,590,86.5,590 L6,590 L7,587.5 C7.55,586.125,8,573.075,8,558.5 C8,543.925,8.45,526.825,9,520.5 C9.55,514.175,9.775,506.975,9.5,504.5 C9.225,502.025,8.325,495.95,7.5,491 C6.675,486.05,5.55,480.2,5,478 C4.45,475.8,4.45,472.2,5,470 C5.55,467.8,6.9,461.95,8,457 C9.1,452.05,9.775,444.85,9.5,441 C9.225,437.15,7.875,432.425,6.5,430.5 C5.125,428.575,3.775,426.325,3.5,425.5 C3.225,424.675,2.55,421.3,2,418 C1.45,414.7,1,405.7,1,398 C1,390.3,1.225,381.975,1.5,379.5 C1.775,377.025,2,369.825,2,363.5 C2,357.175,2.225,349.975,2.5,347.5 C2.775,345.025,3,340.3,3,337 C3,333.7,3.225,328.975,3.5,326.5 C3.775,324.025,4,314.125,4,304.5 C4,294.875,4.225,284.975,4.5,282.5 C4.775,280.025,5,273.95,5,269 C5,264.05,5.45,258.2,6,256 C6.55,253.8,8.35,247.725,10,242.5 C11.65,237.275,12.775,231.875,12.5,230.5 C12.225,229.125,11.1,226.875,10,225.5 C8.9,224.125,8.225,220.3,8.5,217 C8.775,213.7,9.225,206.725,9.5,201.5 C9.775,196.275,10.225,189.975,10.5,187.5 C10.775,185.025,11,178.5,11,173 C11,167.5,11.675,159.625,12.5,155.5 C13.325,151.375,14,145.075,14,141.5 C14,137.925,13.1,131.85,12,128 C10.9,124.15,10.675,120.1,11.5,119 C12.325,117.9,13.675,115.2,14.5,113 C15.325,110.8,16,106.75,16,104 C16,101.25,16.225,96.975,16.5,94.5 C16.775,92.025,17,85.95,17,81 C17,76.05,16.55,67.725,16,62.5 C15.315,55.996,14.054,52.212,12,50.5 C10.35,49.125,8.775,45.975,8.5,43.5 C8.225,41.025,7.775,36.975,7.5,34.5 C7.225,32.025,7,27.075,7,23.5 L7,17 L11.5,14.5 C13.975,13.125,18.025,11.775,20.5,11.5 C22.975,11.225,26.8,10.775,29,10.5 C31.2,10.225,35.025,9.775,37.5,9.5 C39.975,9.225,42.45,9,43,9 M183.5,13 C188.725,13,194.125,13.9,195.5,15 C197.392,16.513,198,23.326,198,43 C198,57.3,198.225,77.775,198.5,88.5 C198.775,99.225,199.675,109.125,200.5,110.5 C201.325,111.875,202.225,114.35,202.5,116 C202.775,117.65,203.9,120.575,205,122.5 C206.1,124.425,208.575,126.225,210.5,126.5 C212.425,126.775,216.25,128.125,219,129.5 C221.75,130.875,225.8,132.45,228,133 C230.2,133.55,236.05,135.35,241,137 C245.95,138.65,251.35,140.9,253,142 C254.65,143.1,258.475,146.7,261.5,150 L267,156 L265,159.5 C263.9,161.425,260.75,165.7,258,169 C255.25,172.3,250.975,179.275,248.5,184.5 C246.025,189.725,242.425,199.4,240.5,206 C238.575,212.6,235.425,222.95,233.5,229 C231.575,235.05,229.1,246.075,228,253.5 C226.9,260.925,226,269.475,226,272.5 C226,275.525,224.875,288.575,223.5,301.5 C222.125,314.425,220.775,327.025,220.5,329.5 C220.225,331.975,219.775,339.85,219.5,347 C219.225,354.15,219.225,364.275,219.5,369.5 C219.775,374.725,220.225,381.025,220.5,383.5 C220.775,385.975,221,394.75,221,403 C221,411.25,220.775,420.025,220.5,422.5 C220.225,424.975,220,429.25,220,432 C220,434.75,220.675,440.15,221.5,444 C222.325,447.85,223.675,452.125,224.5,453.5 C225.325,454.875,227.35,456.675,229,457.5 C230.65,458.325,233.125,458.775,234.5,458.5 C235.875,458.225,238.35,457.1,240,456 C241.65,454.9,245.925,453.55,249.5,453 C253.075,452.45,258.025,451.325,260.5,450.5 C262.975,449.675,266.35,447.425,268,445.5 C269.65,443.575,272.125,439.75,273.5,437 C274.875,434.25,277.8,429.075,280,425.5 C282.2,421.925,285.8,416.525,288,413.5 C290.2,410.475,293.575,406.425,295.5,404.5 C297.425,402.575,301.925,398.3,305.5,395 C309.075,391.7,313.575,387.425,315.5,385.5 C318.206,382.794,320.929,382,327.5,382 C332.557,382,337.215,383.013,339,384.5 C340.65,385.875,344.475,389.475,347.5,392.5 C350.525,395.525,353.45,399.8,354,402 C354.55,404.2,355,408.25,355,411 C355,413.75,354.775,415.775,354.5,415.5 C354.225,415.225,352.425,411.85,350.5,408 C348.575,404.15,345.2,399.2,343,397 C340.8,394.8,335.4,391.875,331,390.5 C325.177,388.68,321.503,388.544,317.5,390 C314.475,391.1,310.65,393.35,309,395 C307.35,396.65,303.975,402.05,301.5,407 C299.025,411.95,293.625,420.275,289.5,425.5 C285.375,430.725,279.075,437.925,275.5,441.5 C271.925,445.075,265.4,450.025,261,452.5 C256.6,454.975,251.2,458.35,249,460 C246.8,461.65,243.2,463.45,241,464 C238.8,464.55,234.75,464.55,232,464 C229.25,463.45,224.75,462.55,222,462 C219.25,461.45,213.175,459.425,208.5,457.5 C203.453,455.422,200.406,453.391,201,452.5 C201.55,451.675,202.9,448.3,204,445 C205.1,441.7,206.675,436.3,207.5,433 C208.325,429.7,210.125,420.475,211.5,412.5 C212.875,404.525,213.775,395.975,213.5,393.5 C213.225,391.025,211.875,382.925,210.5,375.5 C209.125,368.075,207.55,357.725,207,352.5 C206.45,347.275,205.775,340.975,205.5,338.5 C205.225,336.025,205,330.625,205,326.5 C205,322.375,205.9,309.325,207,297.5 C208.1,285.675,209.45,272.4,210,268 C210.55,263.6,211.45,258.2,212,256 C212.55,253.8,213.9,245.925,215,238.5 C216.1,231.075,218.125,220.5,219.5,215 C220.875,209.5,223.35,201.625,225,197.5 C226.65,193.375,229.575,187.525,231.5,184.5 C233.425,181.475,236.575,177.425,238.5,175.5 C240.425,173.575,245.375,170.425,249.5,168.5 C253.625,166.575,258.125,164.1,259.5,163 C260.875,161.9,261.775,160.325,261.5,159.5 C261.225,158.675,258.075,156.875,254.5,155.5 C250.925,154.125,244.85,151.875,241,150.5 C237.15,149.125,227.7,145.075,220,141.5 C212.3,137.925,201.95,132.3,197,129 L188,123 L187,117.5 C186.45,114.475,186.225,109.975,186.5,107.5 C186.775,105.025,187,99.175,187,94.5 C187,89.825,187.225,83.975,187.5,81.5 C187.775,79.025,188,74.075,188,70.5 C188,66.925,188.45,61.75,189,59 C189.55,56.25,190.675,52.425,191.5,50.5 C192.325,48.575,193.225,44.525,193.5,41.5 C193.775,38.475,193.55,32.85,193,29 C192.45,25.15,191.1,20.875,190,19.5 C188.4,17.5,187.8,17.5,187,19.5 C186.45,20.875,185.325,23.125,184.5,24.5 C183.675,25.875,181.65,27.225,180,27.5 C177.766,27.872,175.85,26.34,172.5,21.5 L168,15 L171,14 C172.65,13.45,178.275,13,183.5,13 M162.5,22 C164.68,22.623,167.32,25.452,169.5,29.5 L173,36 L177,35.5 C179.2,35.225,181.45,35.675,182,36.5 C182.55,37.325,184.125,37.55,185.5,37 L188,36 L187.5,39.5 C187.225,41.425,186.1,45.475,185,48.5 C183.9,51.525,182.775,56.7,182.5,60 C182.225,63.3,181.775,68.025,181.5,70.5 C181.225,72.975,180.775,81.075,180.5,88.5 C180.225,95.925,179.55,106.05,179,111 L178,120 L172.5,119 L167,118 L168,114.5 C168.55,112.575,169.225,108.3,169.5,105 C169.775,101.7,169.55,96.3,169,93 L168,87 L162,86 L156,85 L155,81 C154.45,78.8,154,71.825,154,65.5 C154,59.175,153.55,52.2,153,50 C152.42,47.678,149.483,44.112,146,41.5 C142.7,39.025,139.775,36.1,139.5,35 C139.158,33.631,141.05,33,145.5,33 L152,33 L153.5,29.5 C154.325,27.575,155.9,24.875,157,23.5 C158.252,21.934,160.308,21.374,162.5,22 M57,35.5 C58.65,37.975,60.45,39.55,61,39 C61.55,38.45,63.35,37.1,65,36 L68,34 L67.5,38 C67.225,40.2,65.875,43.35,64.5,45 C63.125,46.65,61.55,50.475,61,53.5 C60.45,56.525,60.225,63.95,60.5,70 C60.775,76.05,61.225,83.025,61.5,85.5 C61.775,87.975,61.775,97.2,61.5,106 C61.225,114.8,60.775,124.025,60.5,126.5 C60.225,128.975,60.225,131.225,60.5,131.5 C60.775,131.775,60.325,136.275,59.5,141.5 C58.675,146.725,57.775,153.025,57.5,155.5 C57.225,157.975,57.225,162.475,57.5,165.5 L58,171 L60,168 C61.1,166.35,62.675,161.175,63.5,156.5 L65,148 L69.5,153 C71.975,155.75,76.025,158.9,78.5,160 C80.975,161.1,85.925,162,89.5,162 L96,162 L94,164 C92.9,165.1,90.65,167.35,89,169 C87.35,170.65,85.55,173.35,85,175 C84.45,176.65,84.675,177.775,85.5,177.5 C86.325,177.225,89.025,175.425,91.5,173.5 L96,170 L97.5,174 C98.325,176.2,99.9,180.025,101,182.5 C102.1,184.975,104.8,188.8,107,191 C109.2,193.2,113.925,196.125,117.5,197.5 C121.075,198.875,126.7,200,130,200 C133.3,200,138.475,199.325,141.5,198.5 C144.525,197.675,148.575,195.875,150.5,194.5 C152.425,193.125,155.125,190.65,156.5,189 C157.875,187.35,159.9,183.525,161,180.5 C162.1,177.475,162.775,172.3,162.5,169 C162.225,165.7,160.65,159.85,159,156 C157.35,152.15,154.2,147.2,152,145 C149.8,142.8,146.425,140.325,144.5,139.5 C142.575,138.675,137.625,137.325,133.5,136.5 L126,135 L125,129 C124.45,125.7,123.325,121.425,122.5,119.5 C121.675,117.575,119.875,114.425,118.5,112.5 C117.125,110.575,114.65,107.65,113,106 L110,103 L114,101.5 C116.2,100.675,124.75,99.1,133,98 C141.25,96.9,150.7,95.55,154,95 C157.3,94.45,160.675,94.225,161.5,94.5 C162.325,94.775,163,97.25,163,100 C163,102.75,161.875,107.7,160.5,111 C159.125,114.3,155.975,119.925,153.5,123.5 L149,130 L153,129 C155.2,128.45,158.575,127.325,160.5,126.5 C162.425,125.675,166.475,125.225,169.5,125.5 C172.525,125.775,177.7,127.125,181,128.5 C184.3,129.875,192.175,133.925,198.5,137.5 C204.825,141.075,215.175,146.25,221.5,149 C227.825,151.75,235.7,154.9,239,156 C242.3,157.1,246.575,158.675,248.5,159.5 L252,161 L248.5,162 C246.575,162.55,242.525,164.8,239.5,167 C236.475,169.2,231.075,175.275,227.5,180.5 C223.925,185.725,219.425,194.5,217.5,200 C215.575,205.5,212.65,217.2,211,226 C209.35,234.8,206.65,250.1,205,260 C203.35,269.9,201.1,286.775,200,297.5 C198.9,308.225,198.225,319.025,198.5,321.5 C198.775,323.975,199,329.6,199,334 C199,338.4,199.675,347.85,200.5,355 C201.325,362.15,202.9,372.95,204,379 C205.1,385.05,206,392.475,206,395.5 C206,398.525,205.325,406.4,204.5,413 C203.675,419.6,202.325,427.25,201.5,430 C200.675,432.75,199.325,438.6,198.5,443 L197,451 L194.5,449.5 C193.125,448.675,189.525,445.525,186.5,442.5 C183.407,439.407,178.593,431.749,175.5,425 C172.475,418.4,169.55,412.775,169,412.5 C168.45,412.225,167.55,412.675,167,413.5 C166.45,414.325,166.45,416.8,167,419 C167.55,421.2,169.575,426.15,171.5,430 C173.425,433.85,176.125,438.575,177.5,440.5 C178.875,442.425,183.15,446.7,187,450 C190.85,453.3,197.825,458.025,202.5,460.5 C207.175,462.975,215.05,466.35,220,468 C224.95,469.65,229.675,470.775,230.5,470.5 C231.325,470.225,235.6,469.1,240,468 C244.4,466.9,251.375,464.425,255.5,462.5 C259.625,460.575,265.925,456.75,269.5,454 C273.075,451.25,277.125,447.875,278.5,446.5 C279.875,445.125,285.725,438.375,291.5,431.5 C297.275,424.625,303.35,415.85,305,412 C306.65,408.15,309.35,403.2,311,401 C312.65,398.8,316.025,396.55,318.5,396 C320.975,395.45,325.7,395.675,329,396.5 C332.3,397.325,336.35,399.125,338,400.5 C339.65,401.875,343.25,407.5,346,413 C348.75,418.5,351.225,425.7,351.5,429 C351.775,432.3,350.65,438.375,349,442.5 C347.35,446.625,343.75,452.7,341,456 C338.25,459.3,335.1,463.35,334,465 C332.9,466.65,327.725,470.925,322.5,474.5 C317.275,478.075,309.175,483.025,304.5,485.5 C299.825,487.975,289.7,492.7,282,496 C274.3,499.3,260.8,504.25,252,507 C243.2,509.75,233.3,512,230,512 C226.7,512,221.75,511.55,219,511 C216.25,510.45,210.625,508.65,206.5,507 C202.375,505.35,196.3,502.425,193,500.5 C189.7,498.575,182.05,491.825,176,485.5 C169.95,479.175,162.075,469.725,158.5,464.5 C154.925,459.275,150.425,451.4,148.5,447 C146.575,442.6,143.65,436.525,142,433.5 C140.35,430.475,138.55,428.45,138,429 C137.45,429.55,137.225,430.9,137.5,432 C137.775,433.1,138.9,437.15,140,441 C141.1,444.85,144.475,452.275,147.5,457.5 C150.525,462.725,156.15,471.05,160,476 C163.85,480.95,172.175,490.175,178.5,496.5 C184.825,502.825,190.9,509.575,192,511.5 C193.1,513.425,193.775,516.35,193.5,518 C193.225,519.65,192.55,524.6,192,529 C191.45,533.4,190.1,542.4,189,549 C187.9,555.6,187.45,562.575,188,564.5 C188.55,566.425,189.675,569.35,190.5,571 C191.606,573.211,191.211,574.657,189,576.5 C187.35,577.875,184.875,578.55,183.5,578 C182.125,577.45,180.55,575.425,180,573.5 C179.45,571.575,179.225,567.975,179.5,565.5 C179.775,563.025,180.225,558.975,180.5,556.5 C180.775,554.025,180.325,551.1,179.5,550 C178.675,548.9,175.075,548.225,171.5,548.5 C167.925,548.775,164.325,549.45,163.5,550 C162.675,550.55,162.225,551.675,162.5,552.5 C162.775,553.325,163.45,555.125,164,556.5 C164.55,557.875,166.575,560.575,168.5,562.5 C170.425,564.425,172.225,568.25,172.5,571 C172.775,573.75,172.55,577.125,172,578.5 C171.45,579.875,169.2,581.225,167,581.5 C164.733,581.783,161.484,580.7,159.5,579 C156.757,576.649,156,574.269,156,568 L156,560 L152.5,564.5 C150.575,566.975,147.65,570.35,146,572 L143,575 L139.5,573 C137.04,571.594,136.149,569.96,136.5,567.5 C136.775,565.575,138.35,561.525,140,558.5 C141.65,555.475,143.9,550.075,145,546.5 C146.1,542.925,146.55,533.7,146,526 C145.45,518.3,143.65,505.025,142,496.5 C140.35,487.975,138.325,478.975,137.5,476.5 C136.675,474.025,134.65,469.525,133,466.5 C131.35,463.475,128.65,459.875,127,458.5 C124.6,456.5,123.4,456.5,121,458.5 C119.35,459.875,116.2,464.6,114,469 C111.8,473.4,107.75,484.2,105,493 C102.25,501.8,99.325,514.4,98.5,521 C97.675,527.6,96.775,535.025,96.5,537.5 C96.225,539.975,95.775,546.275,95.5,551.5 C95.225,556.725,94.55,563.7,94,567 C93.45,570.3,92.1,573.225,91,573.5 C89.9,573.775,87.875,573.325,86.5,572.5 C85.125,571.675,83.325,568.525,82.5,565.5 C81.675,562.475,81.675,557.525,82.5,554.5 C83.401,551.195,83.202,547.803,82,546 C80.897,544.345,77.534,542.552,74.5,542 C71.475,541.45,67.65,541.9,66,543 C64.35,544.1,63.225,546.125,63.5,547.5 C63.775,548.875,66.475,552.7,69.5,556 L75,562 L74.5,567 C74.225,569.75,73.1,572.675,72,573.5 C70.9,574.325,68.875,574.55,67.5,574 C65.861,573.344,64.656,570.245,64,565 C63.45,560.6,62.55,557.225,62,557.5 C61.45,557.775,58.525,560.7,55.5,564 C52.178,567.624,49.01,569.802,47.5,569.5 C46.125,569.225,44.1,567.65,43,566 C41.9,564.35,41,560.525,41,557.5 C41,554.475,42.125,548.4,43.5,544 C45.369,538.018,45.495,533.477,44,526 C42.9,520.5,40.65,511.275,39,505.5 C37.35,499.725,33.3,484.875,30,472.5 C26.7,460.125,22.875,446.625,21.5,442.5 C20.125,438.375,17.2,428.7,15,421 C12.8,413.3,10.55,403.175,10,398.5 C9.45,393.825,9.225,387.975,9.5,385.5 C9.775,383.025,10.225,373.35,10.5,364 C10.775,354.65,11.45,340.25,12,332 C12.55,323.75,13.225,314.975,13.5,312.5 C13.775,310.025,13.775,307.775,13.5,307.5 C13.225,307.225,13.225,306.775,13.5,306.5 C13.775,306.225,14.9,298.575,16,289.5 C17.1,280.425,18.45,268.725,19,263.5 C19.55,258.275,20.9,249.5,22,244 C23.1,238.5,25.125,224.1,26.5,212 C27.875,199.9,29.225,185.725,29.5,180.5 C29.775,175.275,30.45,167.85,31,164 C31.55,160.15,32.675,150.475,33.5,142.5 C34.325,134.525,35.225,125.975,35.5,123.5 C35.775,121.025,36.225,114.95,36.5,110 C36.775,105.05,37.225,98.975,37.5,96.5 C37.775,94.025,38,86.15,38,79 C38,71.85,38.225,63.975,38.5,61.5 C38.775,59.025,38.325,55.65,37.5,54 C36.675,52.35,34.2,50.55,32,50 C29.8,49.45,26.65,47.875,25,46.5 C23.35,45.125,22.225,42.65,22.5,41 C22.79,39.263,24.263,37.79,26,37.5 C27.65,37.225,31.7,38.125,35,39.5 L41,42 L41.5,38.5 C41.775,36.575,42.9,34.325,44,33.5 C45.1,32.675,46.9,32.225,48,32.5 C49.1,32.775,50.45,33.675,51,34.5 C51.588,35.382,52.412,34.97,53,33.5 L54,31 L57,35.5 M92.5,106 C93.325,106,96.25,106.45,99,107 C101.75,107.55,106.025,109.575,108.5,111.5 C110.975,113.425,114.125,117.025,115.5,119.5 C116.875,121.975,117.775,126.475,117.5,129.5 C117.225,132.525,115.65,137.475,114,140.5 C112.35,143.525,109.875,147.125,108.5,148.5 C107.125,149.875,103.975,152.125,101.5,153.5 C99.025,154.875,94.075,156,90.5,156 C86.925,156,82.2,155.1,80,154 C77.8,152.9,74.2,149.075,72,145.5 C69.8,141.925,68,136.75,68,134 C68,131.25,68.675,126.3,69.5,123 C70.329,119.684,72.789,115.435,75,113.5 C77.2,111.575,81.7,109.1,85,108 C88.3,106.9,91.675,106,92.5,106 M80,138 C78.9,138,77.775,139.35,77.5,141 C77.225,142.65,78.125,144.675,79.5,145.5 C80.875,146.325,82.45,146.325,83,145.5 C83.55,144.675,84.225,143.55,84.5,143 C84.775,142.45,84.325,141.1,83.5,140 C82.675,138.9,81.1,138,80,138 M130.5,142.5 C132.975,142.775,137.475,143.9,140.5,145 C143.525,146.1,147.35,148.35,149,150 C150.65,151.65,153.125,155.925,154.5,159.5 C155.875,163.075,156.775,168.25,156.5,171 C156.225,173.75,154.875,178.7,153.5,182 C151.741,186.222,149.37,188.889,145.5,191 C141.794,193.022,137.065,193.837,131,193.5 C126.05,193.225,120.2,192.325,118,191.5 C115.8,190.675,112.2,187.975,110,185.5 C107.8,183.025,105.55,178.975,105,176.5 C104.45,174.025,104.45,170.2,105,168 C105.55,165.8,108.925,159.95,112.5,155 C116.075,150.05,120.575,145.1,122.5,144 C124.425,142.9,128.025,142.225,130.5,142.5 M75.5,169 C75.225,169,74.775,170.8,74.5,173 C74.225,175.2,74.9,178.575,76,180.5 C77.1,182.425,79.575,184.9,81.5,186 C83.425,187.1,86.8,187.775,89,187.5 C91.2,187.225,93.225,186.325,93.5,185.5 C93.775,184.675,91.525,183.325,88.5,182.5 C84.659,181.452,82.246,179.643,80.5,176.5 C79.125,174.025,77.55,171.325,77,170.5 C76.45,169.675,75.775,169,75.5,169 M121,175 C119.049,175,117.825,176.049,117.5,178 C117.206,179.764,118.03,181.412,119.5,182 C120.875,182.55,122.675,182.1,123.5,181 C124.325,179.9,124.775,178.1,124.5,177 C124.225,175.9,122.65,175,121,175 M356.5,438 C356.775,438,357,441.15,357,445 C357,448.85,355.425,458.075,353.5,465.5 C351.575,472.925,347.75,487.325,345,497.5 C342.25,507.675,338.65,517.8,337,520 C335.35,522.2,329.725,528.95,324.5,535 C316.905,543.795,313.597,546.501,308,548.5 C304.15,549.875,298.3,552.125,295,553.5 C291.7,554.875,285.4,558.475,281,561.5 C276.6,564.525,270.975,569.025,268.5,571.5 C266.025,573.975,262.425,576.9,260.5,578 C258.575,579.1,253.4,581.125,249,582.5 C244.6,583.875,236.5,585,231,585 C225.5,585,218.975,585.225,216.5,585.5 C214.025,585.775,205.925,586,198.5,586 C189.488,586,186.164,585.501,188.5,584.5 C190.425,583.675,193.575,581.2,195.5,579 C197.425,576.8,198.775,574.1,198.5,573 C198.225,571.9,197.325,569.425,196.5,567.5 C195.675,565.575,195.225,560.625,195.5,556.5 C195.775,552.375,196.675,545.85,197.5,542 C198.325,538.15,199.225,532.075,199.5,528.5 C199.775,524.925,200.45,520.2,201,518 C201.705,515.181,202.738,514.148,204.5,514.5 C205.875,514.775,208.8,515.45,211,516 C213.2,516.55,218.375,517.225,222.5,517.5 C226.625,517.775,233.15,517.55,237,517 C240.85,516.45,250.75,513.75,259,511 C267.25,508.25,277.6,504.425,282,502.5 C286.4,500.575,294.275,496.975,299.5,494.5 C304.725,492.025,314.85,486.4,322,482 L335,474 L343,463.5 C347.4,457.725,351.9,450.975,353,448.5 C354.1,446.025,355.225,442.65,355.5,441 C355.775,439.35,356.225,438,356.5,438 " fill="rgb(241, 177, 193)" stroke="none" fill-rule="evenodd"></path><path d="M180.5,0 L0,0 L0,300 L0,600 L178,600 C319.057,600,356.519,599.481,358.5,597.5 C360.472,595.528,361,569.453,361,474 C361,407.45,360.775,350.975,360.5,348.5 C360.225,346.025,360,333.65,360,321 C360,308.35,360.225,295.975,360.5,293.5 C360.775,291.025,361,223.975,361,144.5 L361,0 L180.5,0 M65.5,6 C71.275,6,77.575,6.45,79.5,7 C81.425,7.55,85.025,9.35,87.5,11 L92,14 L124.5,14 C147.456,14,156.413,14.587,155,16 C153.9,17.1,152.1,19.125,151,20.5 C149.9,21.875,148.325,23.45,147.5,24 C146.675,24.55,144.2,24.55,142,24 C139.8,23.45,136.875,22.55,135.5,22 C134.125,21.45,131.65,21.225,130,21.5 L127,22 L129.5,25.5 C130.875,27.425,132.45,31.475,133,34.5 L134,40 L140,43.5 L146,47 L147,55.5 C147.55,60.175,148.225,66.025,148.5,68.5 C148.775,70.975,148.775,75.475,148.5,78.5 C148.225,81.525,147.55,85.125,147,86.5 C146.35,88.124,141.969,89.876,134.5,91.5 C128.175,92.875,118.725,94.675,113.5,95.5 C108.275,96.325,101.3,97.675,98,98.5 C94.7,99.325,86.825,101.8,80.5,104 L69,108 L68,103.5 C67.45,101.025,67.225,97.2,67.5,95 C67.775,92.8,67.55,86.95,67,82 C66.45,77.05,66.225,68.725,66.5,63.5 C66.854,56.783,68.025,52.682,70.5,49.5 C72.425,47.025,74.9,42.75,76,40 C77.177,37.057,77.383,32.12,76.5,28 C75.675,24.15,74.1,20.325,73,19.5 C71.43,18.322,70.785,18.859,70,22 C69.365,24.541,67.906,26.182,66,26.5 C64.35,26.775,61.2,25.875,59,24.5 C56.8,23.125,52.975,18.85,50.5,15 L46,8 L50.5,7 C52.975,6.45,59.725,6,65.5,6 M43,9 C43.55,9,43.775,9.45,43.5,10 C43.225,10.55,43.225,11.675,43.5,12.5 C43.775,13.325,44.225,16.25,44.5,19 C44.896,22.959,44.167,24.625,41,27 C38.539,28.846,33.538,30.192,28,30.5 L19,31 L16,26 L13,21 L12,23.5 C11.45,24.875,11.675,29.15,12.5,33 C13.325,36.85,14.9,42.025,16,44.5 C17.262,47.339,20.583,50.476,25,53 L32,57 L32,73.5 C32,82.575,31.775,92.025,31.5,94.5 C31.225,96.975,30.55,105.525,30,113.5 C29.45,121.475,28.55,132.05,28,137 C27.45,141.95,26.325,150.05,25.5,155 C24.675,159.95,23.775,167.825,23.5,172.5 C23.225,177.175,22.1,190.45,21,202 C19.9,213.55,18.325,227.05,17.5,232 C16.675,236.95,15.55,242.8,15,245 C14.45,247.2,13.325,255.3,12.5,263 C11.675,270.7,10.55,280.15,10,284 C9.45,287.85,8.55,296.625,8,303.5 C7.45,310.375,6.775,318.025,6.5,320.5 C6.225,322.975,5.775,330.85,5.5,338 C5.225,345.15,4.775,353.025,4.5,355.5 C4.225,357.975,4,362.925,4,366.5 C4,370.075,3.775,375.025,3.5,377.5 C3.225,379.975,3,384.925,3,388.5 C3,392.075,3.45,398.15,4,402 C4.55,405.85,5.9,412.375,7,416.5 C8.1,420.625,9.9,426.7,11,430 C12.1,433.3,14.125,439.6,15.5,444 C16.875,448.4,18.45,454.025,19,456.5 C19.55,458.975,20.675,463.7,21.5,467 C22.325,470.3,24.125,476.6,25.5,481 C26.875,485.4,30.25,496.65,33,506 C35.75,515.35,38,526.15,38,530 C38,533.85,37.55,538.8,37,541 C36.45,543.2,35.55,548.15,35,552 C34.45,555.85,34.45,561.25,35,564 C35.55,566.75,37.8,570.575,40,572.5 C42.643,574.812,46.036,576,50,576 C53.3,576,58.925,577.125,62.5,578.5 C66.075,579.875,70.575,580.55,72.5,580 C74.425,579.45,77.35,579.225,79,579.5 C80.65,579.775,83.575,580.45,85.5,581 C87.425,581.55,89.225,581.775,89.5,581.5 C89.775,581.225,90.225,581.225,90.5,581.5 C90.775,581.775,92.125,581.55,93.5,581 C94.875,580.45,96.9,578.425,98,576.5 C99.1,574.575,100.225,568.275,100.5,562.5 C100.775,556.725,101.45,546.375,102,539.5 C102.55,532.625,103.675,522.725,104.5,517.5 C105.325,512.275,106.9,504.625,108,500.5 C109.1,496.375,111.575,489.175,113.5,484.5 C115.425,479.825,118.125,473.75,119.5,471 C120.875,468.25,122.45,465.775,123,465.5 C123.55,465.225,125.575,466.8,127.5,469 C129.765,471.588,132.235,478.471,134.5,488.5 C136.425,497.025,138.45,509.175,139,515.5 C139.55,521.825,139.775,531.275,139.5,536.5 C139.176,542.663,137.595,548.634,135,553.5 C132.8,557.625,130.775,563.475,130.5,566.5 C130.225,569.525,131.125,573.575,132.5,575.5 C134.177,577.848,137.798,579.658,143.5,581 C148.175,582.1,154.25,584.125,157,585.5 C159.75,586.875,164.25,588,167,588 C170.077,588,171.038,588.385,169.5,589 C168.125,589.55,130.775,590,86.5,590 L6,590 L7,587.5 C7.55,586.125,8,573.075,8,558.5 C8,543.925,8.45,526.825,9,520.5 C9.55,514.175,9.775,506.975,9.5,504.5 C9.225,502.025,8.325,495.95,7.5,491 C6.675,486.05,5.55,480.2,5,478 C4.45,475.8,4.45,472.2,5,470 C5.55,467.8,6.9,461.95,8,457 C9.1,452.05,9.775,444.85,9.5,441 C9.225,437.15,7.875,432.425,6.5,430.5 C5.125,428.575,3.775,426.325,3.5,425.5 C3.225,424.675,2.55,421.3,2,418 C1.45,414.7,1,405.7,1,398 C1,390.3,1.225,381.975,1.5,379.5 C1.775,377.025,2,369.825,2,363.5 C2,357.175,2.225,349.975,2.5,347.5 C2.775,345.025,3,340.3,3,337 C3,333.7,3.225,328.975,3.5,326.5 C3.775,324.025,4,314.125,4,304.5 C4,294.875,4.225,284.975,4.5,282.5 C4.775,280.025,5,273.95,5,269 C5,264.05,5.45,258.2,6,256 C6.55,253.8,8.35,247.725,10,242.5 C11.65,237.275,12.775,231.875,12.5,230.5 C12.225,229.125,11.1,226.875,10,225.5 C8.9,224.125,8.225,220.3,8.5,217 C8.775,213.7,9.225,206.725,9.5,201.5 C9.775,196.275,10.225,189.975,10.5,187.5 C10.775,185.025,11,178.5,11,173 C11,167.5,11.675,159.625,12.5,155.5 C13.325,151.375,14,145.075,14,141.5 C14,137.925,13.1,131.85,12,128 C10.9,124.15,10.675,120.1,11.5,119 C12.325,117.9,13.675,115.2,14.5,113 C15.325,110.8,16,106.75,16,104 C16,101.25,16.225,96.975,16.5,94.5 C16.775,92.025,17,85.95,17,81 C17,76.05,16.55,67.725,16,62.5 C15.315,55.996,14.054,52.212,12,50.5 C10.35,49.125,8.775,45.975,8.5,43.5 C8.225,41.025,7.775,36.975,7.5,34.5 C7.225,32.025,7,27.075,7,23.5 L7,17 L11.5,14.5 C13.975,13.125,18.025,11.775,20.5,11.5 C22.975,11.225,26.8,10.775,29,10.5 C31.2,10.225,35.025,9.775,37.5,9.5 C39.975,9.225,42.45,9,43,9 M183.5,13 C188.725,13,194.125,13.9,195.5,15 C197.392,16.513,198,23.326,198,43 C198,57.3,198.225,77.775,198.5,88.5 C198.775,99.225,199.675,109.125,200.5,110.5 C201.325,111.875,202.225,114.35,202.5,116 C202.775,117.65,203.9,120.575,205,122.5 C206.1,124.425,208.575,126.225,210.5,126.5 C212.425,126.775,216.25,128.125,219,129.5 C221.75,130.875,225.8,132.45,228,133 C230.2,133.55,236.05,135.35,241,137 C245.95,138.65,251.35,140.9,253,142 C254.65,143.1,258.475,146.7,261.5,150 L267,156 L265,159.5 C263.9,161.425,260.75,165.7,258,169 C255.25,172.3,250.975,179.275,248.5,184.5 C246.025,189.725,242.425,199.4,240.5,206 C238.575,212.6,235.425,222.95,233.5,229 C231.575,235.05,229.1,246.075,228,253.5 C226.9,260.925,226,269.475,226,272.5 C226,275.525,224.875,288.575,223.5,301.5 C222.125,314.425,220.775,327.025,220.5,329.5 C220.225,331.975,219.775,339.85,219.5,347 C219.225,354.15,219.225,364.275,219.5,369.5 C219.775,374.725,220.225,381.025,220.5,383.5 C220.775,385.975,221,394.75,221,403 C221,411.25,220.775,420.025,220.5,422.5 C220.225,424.975,220,429.25,220,432 C220,434.75,220.675,440.15,221.5,444 C222.325,447.85,223.675,452.125,224.5,453.5 C225.325,454.875,227.35,456.675,229,457.5 C230.65,458.325,233.125,458.775,234.5,458.5 C235.875,458.225,238.35,457.1,240,456 C241.65,454.9,245.925,453.55,249.5,453 C253.075,452.45,258.025,451.325,260.5,450.5 C262.975,449.675,266.35,447.425,268,445.5 C269.65,443.575,272.125,439.75,273.5,437 C274.875,434.25,277.8,429.075,280,425.5 C282.2,421.925,285.8,416.525,288,413.5 C290.2,410.475,293.575,406.425,295.5,404.5 C297.425,402.575,301.925,398.3,305.5,395 C309.075,391.7,313.575,387.425,315.5,385.5 C318.206,382.794,320.929,382,327.5,382 C332.557,382,337.215,383.013,339,384.5 C340.65,385.875,344.475,389.475,347.5,392.5 C350.525,395.525,353.45,399.8,354,402 C354.55,404.2,355,408.25,355,411 C355,413.75,354.775,415.775,354.5,415.5 C354.225,415.225,352.425,411.85,350.5,408 C348.575,404.15,345.2,399.2,343,397 C340.8,394.8,335.4,391.875,331,390.5 C325.177,388.68,321.503,388.544,317.5,390 C314.475,391.1,310.65,393.35,309,395 C307.35,396.65,303.975,402.05,301.5,407 C299.025,411.95,293.625,420.275,289.5,425.5 C285.375,430.725,279.075,437.925,275.5,441.5 C271.925,445.075,265.4,450.025,261,452.5 C256.6,454.975,251.2,458.35,249,460 C246.8,461.65,243.2,463.45,241,464 C238.8,464.55,234.75,464.55,232,464 C229.25,463.45,224.75,462.55,222,462 C219.25,461.45,213.175,459.425,208.5,457.5 C203.453,455.422,200.406,453.391,201,452.5 C201.55,451.675,202.9,448.3,204,445 C205.1,441.7,206.675,436.3,207.5,433 C208.325,429.7,210.125,420.475,211.5,412.5 C212.875,404.525,213.775,395.975,213.5,393.5 C213.225,391.025,211.875,382.925,210.5,375.5 C209.125,368.075,207.55,357.725,207,352.5 C206.45,347.275,205.775,340.975,205.5,338.5 C205.225,336.025,205,330.625,205,326.5 C205,322.375,205.9,309.325,207,297.5 C208.1,285.675,209.45,272.4,210,268 C210.55,263.6,211.45,258.2,212,256 C212.55,253.8,213.9,245.925,215,238.5 C216.1,231.075,218.125,220.5,219.5,215 C220.875,209.5,223.35,201.625,225,197.5 C226.65,193.375,229.575,187.525,231.5,184.5 C233.425,181.475,236.575,177.425,238.5,175.5 C240.425,173.575,245.375,170.425,249.5,168.5 C253.625,166.575,258.125,164.1,259.5,163 C260.875,161.9,261.775,160.325,261.5,159.5 C261.225,158.675,258.075,156.875,254.5,155.5 C250.925,154.125,244.85,151.875,241,150.5 C237.15,149.125,227.7,145.075,220,141.5 C212.3,137.925,201.95,132.3,197,129 L188,123 L187,117.5 C186.45,114.475,186.225,109.975,186.5,107.5 C186.775,105.025,187,99.175,187,94.5 C187,89.825,187.225,83.975,187.5,81.5 C187.775,79.025,188,74.075,188,70.5 C188,66.925,188.45,61.75,189,59 C189.55,56.25,190.675,52.425,191.5,50.5 C192.325,48.575,193.225,44.525,193.5,41.5 C193.775,38.475,193.55,32.85,193,29 C192.45,25.15,191.1,20.875,190,19.5 C188.4,17.5,187.8,17.5,187,19.5 C186.45,20.875,185.325,23.125,184.5,24.5 C183.675,25.875,181.65,27.225,180,27.5 C177.766,27.872,175.85,26.34,172.5,21.5 L168,15 L171,14 C172.65,13.45,178.275,13,183.5,13 M162.5,22 C164.68,22.623,167.32,25.452,169.5,29.5 L173,36 L177,35.5 C179.2,35.225,181.45,35.675,182,36.5 C182.55,37.325,184.125,37.55,185.5,37 L188,36 L187.5,39.5 C187.225,41.425,186.1,45.475,185,48.5 C183.9,51.525,182.775,56.7,182.5,60 C182.225,63.3,181.775,68.025,181.5,70.5 C181.225,72.975,180.775,81.075,180.5,88.5 C180.225,95.925,179.55,106.05,179,111 L178,120 L172.5,119 L167,118 L168,114.5 C168.55,112.575,169.225,108.3,169.5,105 C169.775,101.7,169.55,96.3,169,93 L168,87 L162,86 L156,85 L155,81 C154.45,78.8,154,71.825,154,65.5 C154,59.175,153.55,52.2,153,50 C152.42,47.678,149.483,44.112,146,41.5 C142.7,39.025,139.775,36.1,139.5,35 C139.158,33.631,141.05,33,145.5,33 L152,33 L153.5,29.5 C154.325,27.575,155.9,24.875,157,23.5 C158.252,21.934,160.308,21.374,162.5,22 M57,35.5 C58.65,37.975,60.45,39.55,61,39 C61.55,38.45,63.35,37.1,65,36 L68,34 L67.5,38 C67.225,40.2,65.875,43.35,64.5,45 C63.125,46.65,61.55,50.475,61,53.5 C60.45,56.525,60.225,63.95,60.5,70 C60.775,76.05,61.225,83.025,61.5,85.5 C61.775,87.975,61.775,97.2,61.5,106 C61.225,114.8,60.775,124.025,60.5,126.5 C60.225,128.975,60.225,131.225,60.5,131.5 C60.775,131.775,60.325,136.275,59.5,141.5 C58.675,146.725,57.775,153.025,57.5,155.5 C57.225,157.975,57.225,162.475,57.5,165.5 L58,171 L60,168 C61.1,166.35,62.675,161.175,63.5,156.5 L65,148 L69.5,153 C71.975,155.75,76.025,158.9,78.5,160 C80.975,161.1,85.925,162,89.5,162 L96,162 L94,164 C92.9,165.1,90.65,167.35,89,169 C87.35,170.65,85.55,173.35,85,175 C84.45,176.65,84.675,177.775,85.5,177.5 C86.325,177.225,89.025,175.425,91.5,173.5 L96,170 L97.5,174 C98.325,176.2,99.9,180.025,101,182.5 C102.1,184.975,104.8,188.8,107,191 C109.2,193.2,113.925,196.125,117.5,197.5 C121.075,198.875,126.7,200,130,200 C133.3,200,138.475,199.325,141.5,198.5 C144.525,197.675,148.575,195.875,150.5,194.5 C152.425,193.125,155.125,190.65,156.5,189 C157.875,187.35,159.9,183.525,161,180.5 C162.1,177.475,162.775,172.3,162.5,169 C162.225,165.7,160.65,159.85,159,156 C157.35,152.15,154.2,147.2,152,145 C149.8,142.8,146.425,140.325,144.5,139.5 C142.575,138.675,137.625,137.325,133.5,136.5 L126,135 L125,129 C124.45,125.7,123.325,121.425,122.5,119.5 C121.675,117.575,119.875,114.425,118.5,112.5 C117.125,110.575,114.65,107.65,113,106 L110,103 L114,101.5 C116.2,100.675,124.75,99.1,133,98 C141.25,96.9,150.7,95.55,154,95 C157.3,94.45,160.675,94.225,161.5,94.5 C162.325,94.775,163,97.25,163,100 C163,102.75,161.875,107.7,160.5,111 C159.125,114.3,155.975,119.925,153.5,123.5 L149,130 L153,129 C155.2,128.45,158.575,127.325,160.5,126.5 C162.425,125.675,166.475,125.225,169.5,125.5 C172.525,125.775,177.7,127.125,181,128.5 C184.3,129.875,192.175,133.925,198.5,137.5 C204.825,141.075,215.175,146.25,221.5,149 C227.825,151.75,235.7,154.9,239,156 C242.3,157.1,246.575,158.675,248.5,159.5 L252,161 L248.5,162 C246.575,162.55,242.525,164.8,239.5,167 C236.475,169.2,231.075,175.275,227.5,180.5 C223.925,185.725,219.425,194.5,217.5,200 C215.575,205.5,212.65,217.2,211,226 C209.35,234.8,206.65,250.1,205,260 C203.35,269.9,201.1,286.775,200,297.5 C198.9,308.225,198.225,319.025,198.5,321.5 C198.775,323.975,199,329.6,199,334 C199,338.4,199.675,347.85,200.5,355 C201.325,362.15,202.9,372.95,204,379 C205.1,385.05,206,392.475,206,395.5 C206,398.525,205.325,406.4,204.5,413 C203.675,419.6,202.325,427.25,201.5,430 C200.675,432.75,199.325,438.6,198.5,443 L197,451 L194.5,449.5 C193.125,448.675,189.525,445.525,186.5,442.5 C183.407,439.407,178.593,431.749,175.5,425 C172.475,418.4,169.55,412.775,169,412.5 C168.45,412.225,167.55,412.675,167,413.5 C166.45,414.325,166.45,416.8,167,419 C167.55,421.2,169.575,426.15,171.5,430 C173.425,433.85,176.125,438.575,177.5,440.5 C178.875,442.425,183.15,446.7,187,450 C190.85,453.3,197.825,458.025,202.5,460.5 C207.175,462.975,215.05,466.35,220,468 C224.95,469.65,229.675,470.775,230.5,470.5 C231.325,470.225,235.6,469.1,240,468 C244.4,466.9,251.375,464.425,255.5,462.5 C259.625,460.575,265.925,456.75,269.5,454 C273.075,451.25,277.125,447.875,278.5,446.5 C279.875,445.125,285.725,438.375,291.5,431.5 C297.275,424.625,303.35,415.85,305,412 C306.65,408.15,309.35,403.2,311,401 C312.65,398.8,316.025,396.55,318.5,396 C320.975,395.45,325.7,395.675,329,396.5 C332.3,397.325,336.35,399.125,338,400.5 C339.65,401.875,343.25,407.5,346,413 C348.75,418.5,351.225,425.7,351.5,429 C351.775,432.3,350.65,438.375,349,442.5 C347.35,446.625,343.75,452.7,341,456 C338.25,459.3,335.1,463.35,334,465 C332.9,466.65,327.725,470.925,322.5,474.5 C317.275,478.075,309.175,483.025,304.5,485.5 C299.825,487.975,289.7,492.7,282,496 C274.3,499.3,260.8,504.25,252,507 C243.2,509.75,233.3,512,230,512 C226.7,512,221.75,511.55,219,511 C216.25,510.45,210.625,508.65,206.5,507 C202.375,505.35,196.3,502.425,193,500.5 C189.7,498.575,182.05,491.825,176,485.5 C169.95,479.175,162.075,469.725,158.5,464.5 C154.925,459.275,150.425,451.4,148.5,447 C146.575,442.6,143.65,436.525,142,433.5 C140.35,430.475,138.55,428.45,138,429 C137.45,429.55,137.225,430.9,137.5,432 C137.775,433.1,138.9,437.15,140,441 C141.1,444.85,144.475,452.275,147.5,457.5 C150.525,462.725,156.15,471.05,160,476 C163.85,480.95,172.175,490.175,178.5,496.5 C184.825,502.825,190.9,509.575,192,511.5 C193.1,513.425,193.775,516.35,193.5,518 C193.225,519.65,192.55,524.6,192,529 C191.45,533.4,190.1,542.4,189,549 C187.9,555.6,187.45,562.575,188,564.5 C188.55,566.425,189.675,569.35,190.5,571 C191.606,573.211,191.211,574.657,189,576.5 C187.35,577.875,184.875,578.55,183.5,578 C182.125,577.45,180.55,575.425,180,573.5 C179.45,571.575,179.225,567.975,179.5,565.5 C179.775,563.025,180.225,558.975,180.5,556.5 C180.775,554.025,180.325,551.1,179.5,550 C178.675,548.9,175.075,548.225,171.5,548.5 C167.925,548.775,164.325,549.45,163.5,550 C162.675,550.55,162.225,551.675,162.5,552.5 C162.775,553.325,163.45,555.125,164,556.5 C164.55,557.875,166.575,560.575,168.5,562.5 C170.425,564.425,172.225,568.25,172.5,571 C172.775,573.75,172.55,577.125,172,578.5 C171.45,579.875,169.2,581.225,167,581.5 C164.733,581.783,161.484,580.7,159.5,579 C156.757,576.649,156,574.269,156,568 L156,560 L152.5,564.5 C150.575,566.975,147.65,570.35,146,572 L143,575 L139.5,573 C137.04,571.594,136.149,569.96,136.5,567.5 C136.775,565.575,138.35,561.525,140,558.5 C141.65,555.475,143.9,550.075,145,546.5 C146.1,542.925,146.55,533.7,146,526 C145.45,518.3,143.65,505.025,142,496.5 C140.35,487.975,138.325,478.975,137.5,476.5 C136.675,474.025,134.65,469.525,133,466.5 C131.35,463.475,128.65,459.875,127,458.5 C124.6,456.5,123.4,456.5,121,458.5 C119.35,459.875,116.2,464.6,114,469 C111.8,473.4,107.75,484.2,105,493 C102.25,501.8,99.325,514.4,98.5,521 C97.675,527.6,96.775,535.025,96.5,537.5 C96.225,539.975,95.775,546.275,95.5,551.5 C95.225,556.725,94.55,563.7,94,567 C93.45,570.3,92.1,573.225,91,573.5 C89.9,573.775,87.875,573.325,86.5,572.5 C85.125,571.675,83.325,568.525,82.5,565.5 C81.675,562.475,81.675,557.525,82.5,554.5 C83.401,551.195,83.202,547.803,82,546 C80.897,544.345,77.534,542.552,74.5,542 C71.475,541.45,67.65,541.9,66,543 C64.35,544.1,63.225,546.125,63.5,547.5 C63.775,548.875,66.475,552.7,69.5,556 L75,562 L74.5,567 C74.225,569.75,73.1,572.675,72,573.5 C70.9,574.325,68.875,574.55,67.5,574 C65.861,573.344,64.656,570.245,64,565 C63.45,560.6,62.55,557.225,62,557.5 C61.45,557.775,58.525,560.7,55.5,564 C52.178,567.624,49.01,569.802,47.5,569.5 C46.125,569.225,44.1,567.65,43,566 C41.9,564.35,41,560.525,41,557.5 C41,554.475,42.125,548.4,43.5,544 C45.369,538.018,45.495,533.477,44,526 C42.9,520.5,40.65,511.275,39,505.5 C37.35,499.725,33.3,484.875,30,472.5 C26.7,460.125,22.875,446.625,21.5,442.5 C20.125,438.375,17.2,428.7,15,421 C12.8,413.3,10.55,403.175,10,398.5 C9.45,393.825,9.225,387.975,9.5,385.5 C9.775,383.025,10.225,373.35,10.5,364 C10.775,354.65,11.45,340.25,12,332 C12.55,323.75,13.225,314.975,13.5,312.5 C13.775,310.025,13.775,307.775,13.5,307.5 C13.225,307.225,13.225,306.775,13.5,306.5 C13.775,306.225,14.9,298.575,16,289.5 C17.1,280.425,18.45,268.725,19,263.5 C19.55,258.275,20.9,249.5,22,244 C23.1,238.5,25.125,224.1,26.5,212 C27.875,199.9,29.225,185.725,29.5,180.5 C29.775,175.275,30.45,167.85,31,164 C31.55,160.15,32.675,150.475,33.5,142.5 C34.325,134.525,35.225,125.975,35.5,123.5 C35.775,121.025,36.225,114.95,36.5,110 C36.775,105.05,37.225,98.975,37.5,96.5 C37.775,94.025,38,86.15,38,79 C38,71.85,38.225,63.975,38.5,61.5 C38.775,59.025,38.325,55.65,37.5,54 C36.675,52.35,34.2,50.55,32,50 C29.8,49.45,26.65,47.875,25,46.5 C23.35,45.125,22.225,42.65,22.5,41 C22.79,39.263,24.263,37.79,26,37.5 C27.65,37.225,31.7,38.125,35,39.5 L41,42 L41.5,38.5 C41.775,36.575,42.9,34.325,44,33.5 C45.1,32.675,46.9,32.225,48,32.5 C49.1,32.775,50.45,33.675,51,34.5 C51.588,35.382,52.412,34.97,53,33.5 L54,31 L57,35.5 M92.5,106 C93.325,106,96.25,106.45,99,107 C101.75,107.55,106.025,109.575,108.5,111.5 C110.975,113.425,114.125,117.025,115.5,119.5 C116.875,121.975,117.775,126.475,117.5,129.5 C117.225,132.525,115.65,137.475,114,140.5 C112.35,143.525,109.875,147.125,108.5,148.5 C107.125,149.875,103.975,152.125,101.5,153.5 C99.025,154.875,94.075,156,90.5,156 C86.925,156,82.2,155.1,80,154 C77.8,152.9,74.2,149.075,72,145.5 C69.8,141.925,68,136.75,68,134 C68,131.25,68.675,126.3,69.5,123 C70.329,119.684,72.789,115.435,75,113.5 C77.2,111.575,81.7,109.1,85,108 C88.3,106.9,91.675,106,92.5,106 M80,138 C78.9,138,77.775,139.35,77.5,141 C77.225,142.65,78.125,144.675,79.5,145.5 C80.875,146.325,82.45,146.325,83,145.5 C83.55,144.675,84.225,143.55,84.5,143 C84.775,142.45,84.325,141.1,83.5,140 C82.675,138.9,81.1,138,80,138 M130.5,142.5 C132.975,142.775,137.475,143.9,140.5,145 C143.525,146.1,147.35,148.35,149,150 C150.65,151.65,153.125,155.925,154.5,159.5 C155.875,163.075,156.775,168.25,156.5,171 C156.225,173.75,154.875,178.7,153.5,182 C151.741,186.222,149.37,188.889,145.5,191 C141.794,193.022,137.065,193.837,131,193.5 C126.05,193.225,120.2,192.325,118,191.5 C115.8,190.675,112.2,187.975,110,185.5 C107.8,183.025,105.55,178.975,105,176.5 C104.45,174.025,104.45,170.2,105,168 C105.55,165.8,108.925,159.95,112.5,155 C116.075,150.05,120.575,145.1,122.5,144 C124.425,142.9,128.025,142.225,130.5,142.5 M75.5,169 C75.225,169,74.775,170.8,74.5,173 C74.225,175.2,74.9,178.575,76,180.5 C77.1,182.425,79.575,184.9,81.5,186 C83.425,187.1,86.8,187.775,89,187.5 C91.2,187.225,93.225,186.325,93.5,185.5 C93.775,184.675,91.525,183.325,88.5,182.5 C84.659,181.452,82.246,179.643,80.5,176.5 C79.125,174.025,77.55,171.325,77,170.5 C76.45,169.675,75.775,169,75.5,169 M121,175 C119.049,175,117.825,176.049,117.5,178 C117.206,179.764,118.03,181.412,119.5,182 C120.875,182.55,122.675,182.1,123.5,181 C124.325,179.9,124.775,178.1,124.5,177 C124.225,175.9,122.65,175,121,175 M356.5,438 C356.775,438,357,441.15,357,445 C357,448.85,355.425,458.075,353.5,465.5 C351.575,472.925,347.75,487.325,345,497.5 C342.25,507.675,338.65,517.8,337,520 C335.35,522.2,329.725,528.95,324.5,535 C316.905,543.795,313.597,546.501,308,548.5 C304.15,549.875,298.3,552.125,295,553.5 C291.7,554.875,285.4,558.475,281,561.5 C276.6,564.525,270.975,569.025,268.5,571.5 C266.025,573.975,262.425,576.9,260.5,578 C258.575,579.1,253.4,581.125,249,582.5 C244.6,583.875,236.5,585,231,585 C225.5,585,218.975,585.225,216.5,585.5 C214.025,585.775,205.925,586,198.5,586 C189.488,586,186.164,585.501,188.5,584.5 C190.425,583.675,193.575,581.2,195.5,579 C197.425,576.8,198.775,574.1,198.5,573 C198.225,571.9,197.325,569.425,196.5,567.5 C195.675,565.575,195.225,560.625,195.5,556.5 C195.775,552.375,196.675,545.85,197.5,542 C198.325,538.15,199.225,532.075,199.5,528.5 C199.775,524.925,200.45,520.2,201,518 C201.705,515.181,202.738,514.148,204.5,514.5 C205.875,514.775,208.8,515.45,211,516 C213.2,516.55,218.375,517.225,222.5,517.5 C226.625,517.775,233.15,517.55,237,517 C240.85,516.45,250.75,513.75,259,511 C267.25,508.25,277.6,504.425,282,502.5 C286.4,500.575,294.275,496.975,299.5,494.5 C304.725,492.025,314.85,486.4,322,482 L335,474 L343,463.5 C347.4,457.725,351.9,450.975,353,448.5 C354.1,446.025,355.225,442.65,355.5,441 C355.775,439.35,356.225,438,356.5,438 " fill="rgb(0, 0, 0)" stroke="none" fill-rule="evenodd"></path></svg>